<svg xmlns="http://www.w3.org/2000/svg" viewBox="0 0 1100 650" preserveAspectRatio="xMidYMid slice">
<defs>
<linearGradient id="bg" x1="0" y1="0" x2="1" y2="1">
<stop offset="0" stop-color="#081d33"/>
<stop offset="0.55" stop-color="#0b223b"/>
<stop offset="1" stop-color="#193a56"/>
</linearGradient>
<radialGradient id="glow" cx="78%" cy="22%" r="48%">
<stop offset="0" stop-color="#d3ad6b" stop-opacity=".33"/>
<stop offset=".42" stop-color="#f7f1e6" stop-opacity=".08"/>
<stop offset="1" stop-color="#081d33" stop-opacity="0"/>
</radialGradient>
</defs>
<rect width="1100" height="650" fill="url(#bg)"/>
<rect width="1100" height="650" fill="url(#glow)"/>
<g fill="#f7f1e6" opacity=".58">
<circle cx="770" cy="105" r="2"/><circle cx="820" cy="82" r="1.6"/><circle cx="866" cy="124" r="1.5"/><circle cx="914" cy="96" r="2.1"/><circle cx="964" cy="148" r="1.4"/>
</g>
<g opacity=".18" stroke="#f7f1e6" fill="none" stroke-width="1.1">
<path d="M0 365 C145 320 230 342 365 294 C515 242 640 300 782 238 C890 190 990 205 1100 154"/>
<path d="M0 430 C160 360 270 405 425 350 C570 298 720 345 860 275 C960 226 1025 244 1100 210"/>
<path d="M0 500 C185 420 325 470 500 407 C665 350 795 418 950 335 C1025 296 1075 305 1100 285"/>
</g>
<path d="M0 360 C170 300 280 360 430 300 C590 238 715 315 855 242 C955 190 1030 194 1100 160 L1100 650 L0 650 Z" fill="#071321" opacity=".42"/>
<path d="M0 430 C165 365 280 420 460 350 C610 292 740 360 890 285 C985 237 1045 252 1100 225 L1100 650 L0 650 Z" fill="#091a2e" opacity=".70"/>
<path d="M0 512 C190 435 315 500 520 420 C680 358 805 435 980 344 C1030 318 1072 325 1100 310 L1100 650 L0 650 Z" fill="#0b1d33" opacity=".96"/>
</svg>