<svg xmlns="http://www.w3.org/2000/svg" viewBox="0 0 1400 900" preserveAspectRatio="xMidYMid slice">
<defs>
<linearGradient id="bg" x1="0" x2="1" y1="0" y2="1">
<stop offset="0" stop-color="#071321"/>
<stop offset=".45" stop-color="#0B1D33"/>
<stop offset="1" stop-color="#173B5A"/>
</linearGradient>
<radialGradient id="sun" cx="74%" cy="22%" r="58%">
<stop offset="0" stop-color="#D9BA72" stop-opacity=".34"/>
<stop offset=".38" stop-color="#F7F1E6" stop-opacity=".12"/>
<stop offset="1" stop-color="#0B1D33" stop-opacity="0"/>
</radialGradient>
</defs>
<rect width="1400" height="900" fill="url(#bg)"/><rect width="1400" height="900" fill="url(#sun)"/>
<g opacity=".18" stroke="#F7F1E6" fill="none">
<path d="M0 630 C240 520 390 580 590 455 C760 348 930 435 1110 310 C1230 226 1330 246 1400 198"/>
<path d="M0 710 C230 600 415 658 640 540 C805 455 980 520 1165 408 C1260 350 1340 360 1400 326"/>
<path d="M110 770 C300 690 470 720 660 630 C820 555 980 605 1170 505 C1270 452 1350 466 1400 432"/>
</g>
<path d="M0 652 C230 538 390 585 600 495 C770 422 900 466 1090 372 C1210 312 1300 320 1400 278 L1400 900 L0 900 Z" fill="#071321" opacity=".82"/>
<path d="M0 752 C245 642 395 708 630 608 C805 534 970 585 1190 482 C1284 438 1350 448 1400 416 L1400 900 L0 900 Z" fill="#0B1D33" opacity=".96"/>
<g fill="#F7F1E6" opacity=".42">
<circle cx="900" cy="150" r="2"/><circle cx="948" cy="202" r="1.6"/><circle cx="1018" cy="128" r="2.3"/><circle cx="1080" cy="230" r="1.8"/><circle cx="1180" cy="175" r="2.1"/>
</g>
</svg>